<?xml version="1.0" standalone="no"?>
<!DOCTYPE svg PUBLIC "-//W3C//DTD SVG 20010904//EN"
 "http://www.w3.org/TR/2001/REC-SVG-20010904/DTD/svg10.dtd">
<svg version="1.0" xmlns="http://www.w3.org/2000/svg"
 width="601.000000pt" height="601.000000pt" viewBox="0 0 601.000000 601.000000"
 preserveAspectRatio="xMidYMid meet">
<metadata>
Created by potrace 1.14, written by Peter Selinger 2001-2017
</metadata>
<g transform="translate(0.000000,601.000000) scale(0.100000,-0.100000)"
fill="#000000" stroke="none">
<path d="M2787 6004 c-1 -1 -37 -4 -80 -8 -312 -26 -704 -137 -1012 -286 -298
-144 -527 -303 -755 -525 -237 -230 -358 -379 -507 -625 -224 -368 -385 -851
-418 -1250 -8 -96 -8 -572 0 -625 38 -254 73 -411 131 -595 99 -315 288 -669
502 -942 93 -117 259 -292 377 -395 449 -390 989 -634 1592 -718 251 -35 632
-26 898 20 844 148 1605 667 2045 1395 72 120 191 362 243 495 187 482 240
1032 152 1575 -54 331 -193 712 -368 1006 -62 104 -189 291 -234 344 -200 237
-301 337 -498 495 -197 157 -371 262 -640 385 -309 141 -671 232 -980 246
-125 5 -444 11 -448 8z"/>
</g>
</svg>
